<?xml version="1.0" ?><svg viewBox="0 0 447.48 252.54" xmlns="http://www.w3.org/2000/svg"><title/><g data-name="Layer 2" id="Layer_2"><g data-name="golden, gate, usa, bridge, architecture, landmark, america, tourism" id="golden_gate_usa_bridge_architecture_landmark_america_tourism"><path d="M447.39,137c0-.17-.08-.33-.12-.5s-.1-.34-.16-.51a4.31,4.31,0,0,0-.22-.49,5.05,5.05,0,0,0-.25-.45,4.15,4.15,0,0,0-.3-.43,4.35,4.35,0,0,0-.34-.41,4.27,4.27,0,0,0-.38-.36l-.4-.34c-.16-.11-.33-.21-.5-.31a2.82,2.82,0,0,0-.29-.18A176.92,176.92,0,0,1,419,117.71a5.46,5.46,0,0,0-6.41,8.85c2.82,2.05,5.76,4,8.74,5.91H399.45V103.39c0-.13,0-.26,0-.4a4.48,4.48,0,0,0-.06-.63,5.54,5.54,0,0,0-.17-.58,3.06,3.06,0,0,0-.13-.43,4.28,4.28,0,0,0-.33-.64c-.06-.1-.1-.21-.16-.3a5.48,5.48,0,0,0-.64-.8l0,0h0l0,0a167.59,167.59,0,0,1-30.76-43.66,5.46,5.46,0,0,0-9.81,4.81q3.36,6.86,7.24,13.33V132.8a5.45,5.45,0,0,0,1.81,10.6h70.23v15.24H10.93V143.4H157.06a4.94,4.94,0,0,0,2.85,0H346a5.47,5.47,0,0,0,5.47-5.47V5.47A5.47,5.47,0,0,0,346,0H319.79a5.47,5.47,0,0,0-5.47,5.47v127H294.46V111.84a5.47,5.47,0,1,0-10.93,0v20.63H263.66V98.65A97.71,97.71,0,0,0,283.53,87v8a5.47,5.47,0,1,0,10.93,0V77.28a97.27,97.27,0,0,0,11.85-15,5.47,5.47,0,1,0-9.19-5.92,86.11,86.11,0,0,1-40.68,33.43c-.18.06-.37.13-.55.21a88.44,88.44,0,0,1-31,6,5.38,5.38,0,0,0-1.14-.12,5.19,5.19,0,0,0-1.05.11,88.11,88.11,0,0,1-31.08-6l-.47-.19a90.23,90.23,0,0,1-10.59-5,5.46,5.46,0,1,0-5.33,9.54q4.23,2.37,8.6,4.27v33.8H164V76.26a5.46,5.46,0,0,0-1.52-5,86,86,0,0,1-10.78-12.92,5.47,5.47,0,0,0-9,6.16A97.72,97.72,0,0,0,153,77.27v55.2H133.16V5.47A5.47,5.47,0,0,0,127.69,0H101.52a5.47,5.47,0,0,0-5.47,5.47v127H83v-6.2a5.47,5.47,0,1,0-10.93,0v6.2H59V105.66A176.89,176.89,0,0,0,72,90.26v17.48a5.47,5.47,0,1,0,10.93,0V74q3.45-5.79,6.54-11.92a5.47,5.47,0,0,0-9.78-4.89A167,167,0,0,1,49.78,99.41a3.22,3.22,0,0,0-.32.32A170.39,170.39,0,0,1,3.05,133a2.82,2.82,0,0,0-.29.18c-.17.1-.34.2-.5.31l-.4.34a4.27,4.27,0,0,0-.38.36,3.21,3.21,0,0,0-.34.41,4.15,4.15,0,0,0-.3.43,5.05,5.05,0,0,0-.25.45,4.31,4.31,0,0,0-.22.49c-.06.17-.11.34-.16.51s-.09.33-.12.51,0,.38-.06.58,0,.22,0,.33v26.18a5.46,5.46,0,0,0,5.47,5.46H96.05v72H91.54a5.47,5.47,0,0,0,0,10.94h36.15a4.78,4.78,0,0,0,.65-.07,4.48,4.48,0,0,0,.64.07h34.15a5.47,5.47,0,0,0,0-10.94h-30V185.24a5.47,5.47,0,0,0-10.94,0V241.6H107v-72H314.32v72H225.6a5.47,5.47,0,0,0,0,10.94H361.11a5.47,5.47,0,0,0,0-10.94h-9.68V184.77a5.47,5.47,0,1,0-10.93,0V241.6H325.26v-72H442a5.46,5.46,0,0,0,5.47-5.46V137.93c0-.11,0-.21,0-.32S447.42,137.21,447.39,137ZM325.26,10.93H340.5V132.47H325.26ZM252.73,132.47H229.21V106.88a99.06,99.06,0,0,0,23.52-4.18Zm-58-29.75a99.08,99.08,0,0,0,23.52,4.17v25.58H194.75ZM107,10.93h15.24V132.47H107ZM48,116.13v16.34H26.26A180.25,180.25,0,0,0,48,116.13Zm340.49-10.56v26.9H375.44V90.21A176.09,176.09,0,0,0,388.52,105.57Z"/><path d="M68,241.6H48.24a5.47,5.47,0,0,0,0,10.94H68a5.47,5.47,0,0,0,0-10.94Z"/><path d="M419.08,247.07a5.46,5.46,0,0,0-5.46-5.47h-23.8a5.47,5.47,0,1,0,0,10.94h23.8A5.46,5.46,0,0,0,419.08,247.07Z"/><path d="M196,252.54a5.47,5.47,0,0,0,0-10.94h-3a5.47,5.47,0,0,0,0,10.94Z"/></g></g></svg>