<svg width="55" height="55" viewBox="0 0 55 55" fill="none" xmlns="http://www.w3.org/2000/svg">
<path d="M48.5833 37.6466V26.5833H28.4167V17.3534C32.0283 16.8997 34.8333 13.816 34.8333 10.0833C34.8333 6.03992 31.5434 2.75 27.5 2.75C23.4566 2.75 20.1667 6.03992 20.1667 10.0833C20.1667 13.816 22.9717 16.8997 26.5833 17.3534V26.5833H6.41667V37.6466C2.805 38.1003 0 41.184 0 44.9167C0 48.9601 3.28992 52.25 7.33333 52.25C11.3767 52.25 14.6667 48.9601 14.6667 44.9167C14.6667 41.184 11.8617 38.1003 8.25 37.6466V28.4167H26.5833V37.6466C22.9717 38.1003 20.1667 41.184 20.1667 44.9167C20.1667 48.9601 23.4566 52.25 27.5 52.25C31.5434 52.25 34.8333 48.9601 34.8333 44.9167C34.8333 41.184 32.0283 38.1003 28.4167 37.6466V28.4167H46.75V37.6466C43.1383 38.1003 40.3333 41.184 40.3333 44.9167C40.3333 48.9601 43.6233 52.25 47.6667 52.25C51.7101 52.25 55 48.9601 55 44.9167C55 41.184 52.195 38.1003 48.5833 37.6466ZM22 10.0833C22 7.05008 24.4668 4.58333 27.5 4.58333C30.5333 4.58333 33 7.05008 33 10.0833C33 13.1166 30.5333 15.5833 27.5 15.5833C24.4668 15.5833 22 13.1166 22 10.0833ZM12.8333 44.9167C12.8333 47.9499 10.3666 50.4167 7.33333 50.4167C4.30008 50.4167 1.83333 47.9499 1.83333 44.9167C1.83333 41.8834 4.30008 39.4167 7.33333 39.4167C10.3666 39.4167 12.8333 41.8834 12.8333 44.9167ZM33 44.9167C33 47.9499 30.5333 50.4167 27.5 50.4167C24.4668 50.4167 22 47.9499 22 44.9167C22 41.8834 24.4668 39.4167 27.5 39.4167C30.5333 39.4167 33 41.8834 33 44.9167ZM47.6667 50.4167C44.6334 50.4167 42.1667 47.9499 42.1667 44.9167C42.1667 41.8834 44.6334 39.4167 47.6667 39.4167C50.6999 39.4167 53.1667 41.8834 53.1667 44.9167C53.1667 47.9499 50.6999 50.4167 47.6667 50.4167Z" fill="#3246D3"/>
</svg>
