<svg width="30" height="37" viewBox="0 0 30 37" fill="none" xmlns="http://www.w3.org/2000/svg">
<g clip-path="url(#clip0_32_870)">
<path fill-rule="evenodd" clip-rule="evenodd" d="M29.375 3.87347C29.3787 4.07234 29.3219 4.27276 29.1994 4.42461C29.1725 4.45699 29.1394 4.47241 29.1094 4.49784L27.4281 6.57139L27.8594 7.10326C27.8894 7.1287 27.9231 7.14412 27.9494 7.17649C28.0719 7.32835 28.1287 7.52876 28.125 7.72687C28.1287 7.92574 28.0719 8.12616 27.9494 8.27801C27.9231 8.31039 27.8894 8.3258 27.8594 8.35124L8.03812 32.799C7.96874 32.9632 7.85874 33.1012 7.71124 33.1698L1.58624 36.1328C1.54999 36.1567 1.51311 36.1722 1.47311 36.1876L1.46561 36.1914C1.46061 36.1937 1.45499 36.1922 1.45061 36.1945C1.39249 36.2138 1.33436 36.23 1.27186 36.2292C1.21061 36.2315 1.15374 36.2176 1.09499 36.1976C1.08249 36.193 1.07061 36.1961 1.05749 36.1907C1.05249 36.1883 1.04936 36.1829 1.04436 36.1806C0.989365 36.1552 0.941865 36.1167 0.894365 36.072C0.86999 36.0504 0.844365 36.0311 0.82374 36.0057C0.803115 35.9802 0.78749 35.9486 0.76999 35.9186C0.73374 35.8607 0.703115 35.8014 0.681865 35.7336C0.679365 35.7274 0.675615 35.7235 0.67374 35.7174C0.669365 35.702 0.671865 35.6865 0.668115 35.6703C0.65249 35.5994 0.64124 35.5285 0.64249 35.4537C0.64249 35.3767 0.65499 35.305 0.670615 35.2325C0.673115 35.2263 0.67124 35.2202 0.673115 35.2148L0.676865 35.2048C0.689365 35.1562 0.70124 35.11 0.720615 35.0652L3.12312 27.5111C3.17936 27.3292 3.29124 27.1935 3.42437 27.1079L20.7762 5.70882C20.6112 5.06595 20.1294 4.59651 19.5531 4.59651C19.1725 4.59651 18.8337 4.80386 18.5981 5.12761L18.5962 5.12607L16.565 7.63128L16.5669 7.63359L12.2937 12.9038C12.0556 13.1975 11.6694 13.1975 11.4306 12.9038C11.1925 12.6101 11.1925 12.1329 11.4306 11.8393L17.7112 4.09393C17.7219 4.08082 17.735 4.07697 17.7462 4.06541C18.2019 3.47495 18.8406 3.10264 19.5537 3.10264C20.46 3.10264 21.2406 3.70697 21.6762 4.59959L23.2475 2.66249C23.2681 2.62626 23.2806 2.58464 23.3069 2.55226C23.43 2.40041 23.5925 2.33026 23.7537 2.33566C23.915 2.33026 24.0775 2.40041 24.2006 2.55226C24.2269 2.58464 24.2394 2.62626 24.26 2.66249L24.6912 3.19437L26.3725 1.12082C26.3931 1.08459 26.4056 1.04297 26.4319 1.01059C26.555 0.85874 26.7175 0.788594 26.8787 0.79399C27.04 0.788594 27.2025 0.85874 27.3256 1.01059C27.3519 1.04297 27.3644 1.08459 27.385 1.12082L29.1112 3.24987C29.1412 3.2753 29.1744 3.29072 29.2012 3.32309C29.3219 3.47495 29.3787 3.67537 29.375 3.87347ZM2.42186 34.0362L6.40687 32.1076L3.98499 29.1206L2.42186 34.0362ZM23.7525 4.16716L4.61561 27.7693L7.50249 31.3298L26.6394 7.72764L23.7525 4.16716ZM26.8775 2.62549L25.5531 4.25889L26.565 5.50687L27.8894 3.87347L26.8775 2.62549Z" fill="white"/>
</g>
<defs>
<clipPath id="clip0_32_870">
<rect width="30" height="37" fill="white"/>
</clipPath>
</defs>
</svg>
