<svg width="46" height="46" viewBox="0 0 46 46" fill="none" xmlns="http://www.w3.org/2000/svg">
<path fill-rule="evenodd" clip-rule="evenodd" d="M30.6667 23C30.6667 27.2341 27.2341 30.6667 23 30.6667C18.7658 30.6667 15.3333 27.2341 15.3333 23C15.3333 18.7659 18.7658 15.3334 23 15.3334C27.2341 15.3334 30.6667 18.7659 30.6667 23ZM26.8333 23C26.8333 25.1172 25.1172 26.8334 23 26.8334C20.8829 26.8334 19.1667 25.1172 19.1667 23C19.1667 20.8829 20.8829 19.1667 23 19.1667C25.1172 19.1667 26.8333 20.8829 26.8333 23Z" fill="white"/>
<path fill-rule="evenodd" clip-rule="evenodd" d="M23 5.75C33.7171 5.75 42.7221 13.0799 45.2753 23C42.7221 32.9201 33.7171 40.25 23 40.25C12.2829 40.25 3.27785 32.9201 0.724609 23C3.27785 13.0799 12.2829 5.75 23 5.75ZM23 36.4167C14.4218 36.4167 7.15171 30.778 4.7097 23C7.15171 15.2219 14.4218 9.58333 23 9.58333C31.5782 9.58333 38.8484 15.2219 41.2904 23C38.8484 30.778 31.5782 36.4167 23 36.4167Z" fill="white"/>
</svg>
