<?xml version="1.0" encoding="utf-8"?>
<!-- Generator: Adobe Illustrator 28.2.0, SVG Export Plug-In . SVG Version: 6.00 Build 0)  -->
<svg version="1.1" id="Layer_1" xmlns="http://www.w3.org/2000/svg" xmlns:xlink="http://www.w3.org/1999/xlink" x="0px" y="0px"
	 viewBox="0 0 256 256" style="enable-background:new 0 0 256 256;" xml:space="preserve">
<style type="text/css">
	.st0{fill:#EF4444;}
</style>
<g id="exercise-dumbbells-gym">
	<g>
		<path class="st0" d="M242.6,43.2l-6.8-8.9c-4.9-6.4-12.6-10.2-20.7-10.2H206c-0.2,0-0.4,0-0.6,0.1c-13.4,4-25.2,12.1-33.8,23.2
			l-1.8,2.3c-0.1,0.1-0.2,0.3-0.2,0.4c-1.3,3-12.5,29.2-8.8,38.9c3.2,8.5,8.4,16.5,12.9,22.5c-30.7,21.4-14.7,53.7-9.4,64.4
			c0.8,1.7,1.4,3.5,1.6,5.4c-9.2-2.1-21.5-3.2-30.5,1.9c-12.4,7.1-34.3,9.7-41.2,10.4V170c0-0.1,0-0.2,0-0.3
			c-0.1-0.4-0.3-0.8-0.6-1.1l-24-24c-0.4-0.4-0.9-0.6-1.4-0.6H34c-0.5,0-1,0.2-1.4,0.6l-24,24c-0.3,0.3-0.5,0.7-0.6,1.1
			c0,0.1,0,0.2,0,0.3v34.1c0,0.5,0.2,1,0.6,1.4l24,24.1c0.4,0.4,0.9,0.6,1.4,0.6h34c0.5,0,1-0.2,1.4-0.6l11.8-11.8
			c4.5,1.3,37.9,11,52.5,13.6c3.2,0.5,6.4,0.7,9.6,0.6c19,0,49.2-4.8,50.7-5c0.7-0.1,1.2-0.5,1.5-1.2c1.9-4.4,3.2-9.1,4-13.9
			c1.1-5.7,2-10.6,6.6-17.1c38.4-55.1,29-93.7,27.7-98.3c2.4-2.3,4.8-4.7,7.2-6.9c7-6.7,7-16.2,7-16.7v-14
			C248,53.2,246.1,47.7,242.6,43.2z M67.2,148L90,170.9v32.3L67.2,226H34.8L12,203.1v-32.3L34.8,148H67.2z M244,73
			c0,0.1-0.1,8.2-5.8,13.8c-2.8,2.6-5.7,5.4-8.4,8.1c-9.6,9.4-17.9,18.3-18,18.4c-0.8,0.8-0.7,2.1,0.1,2.8c0.8,0.8,2.1,0.7,2.8-0.1
			c0.1-0.1,7.1-7.6,15.7-16.1c1.9,9.4,5.7,45-27.6,92.8c-5,7.2-6.1,12.7-7.2,18.6c-0.7,4.1-1.8,8.1-3.3,12
			c-6.9,1.1-44.3,6.6-57.9,4.2c-12.8-2.2-41.3-10.3-50-12.9l9-9.1c0.4-0.4,0.6-0.9,0.6-1.4v-6.4c6.7-0.6,29.7-3.2,43.2-11
			c8.7-4.9,21.4-3.1,30.1-0.9c3.4,0.9,6.7,1.9,9.9,3.2c1,0.4,2.2-0.2,2.6-1.2c0.3-1-0.1-2-1-2.5c-2.9-1.2-5.9-2.2-9-3
			c0-2.9-0.7-5.7-2-8.2c-8.5-17.2-16.9-42.1,8.3-59.5c3.8,4.7,6.8,7.7,7.1,8c0.4,0.4,0.9,0.6,1.4,0.6s1-0.2,1.4-0.6
			c0.8-0.8,0.8-2,0-2.8l0,0c-0.1-0.2-15.2-15.3-21.5-32.3c-2.6-6.9,5.3-27.8,8.6-35.7l1.6-2.1c8-10.3,19-17.9,31.5-21.7h8.8
			c6.9,0,13.3,3.2,17.5,8.7l6.8,8.9c2.9,3.8,4.5,8.5,4.6,13.3L244,73L244,73z"/>
		<path class="st0" d="M204.5,126.4c-1.1,0.2-1.8,1.2-1.7,2.3l0,0c3,21.1-10.6,41.1-10.8,41.3c-0.6,0.9-0.4,2.2,0.5,2.8
			c0.3,0.2,0.7,0.3,1.1,0.4c0.7,0,1.3-0.3,1.6-0.9c0.6-0.9,14.7-21.5,11.4-44.2C206.6,127,205.6,126.3,204.5,126.4z"/>
		<path class="st0" d="M57.2,134.2c0.4,0,0.7,0,1.1-0.1c2.4-0.4,4.3-2.2,4.9-4.6l0,0c7.9-29.4,30.3-52.7,59.4-61.7l0.9,4.6
			c0.5,2.1,2.7,3.5,4.8,3c0.7-0.2,1.3-0.5,1.9-1l16.5-16.7c2.4-2.3,2.5-6.1,0.2-8.5c-0.7-0.8-1.7-1.3-2.7-1.6l-21.9-6.5
			c-2.1-0.6-4.3,0.6-5,2.7c-0.2,0.7-0.2,1.4-0.1,2.1l1.2,4.8c-24.9,8.6-45.7,26.3-58,49.6c-4.4,8.3-7.7,17.2-9.6,26.4
			c-0.4,2,0.2,4.2,1.6,5.7C53.8,133.5,55.5,134.2,57.2,134.2z"/>
		<path class="st0" d="M37.6,217.4c0.4,0.4,0.9,0.6,1.4,0.6h24c0.5,0,1-0.2,1.4-0.6l17-17c0.4-0.4,0.6-0.9,0.6-1.4v-24
			c0-0.5-0.2-1-0.6-1.4l-17-17c-0.4-0.4-0.9-0.6-1.4-0.6H39c-0.5,0-1,0.2-1.4,0.6l-17,17c-0.4,0.4-0.6,0.9-0.6,1.4v24
			c0,0.5,0.2,1,0.6,1.4L37.6,217.4z M38,187c0-7.2,5.8-13,13-13s13,5.8,13,13s-5.8,13-13,13c-3.5,0-6.8-1.4-9.2-3.8
			C39.4,193.8,38,190.4,38,187z"/>
	</g>
</g>
</svg>
