<svg width="120" height="68" viewBox="0 0 120 68" fill="none" xmlns="http://www.w3.org/2000/svg">
<g clip-path="url(#clip0_11_3)">
<path d="M119.976 36.8892C119.976 36.8434 119.954 36.8004 119.944 36.7546C119.933 36.7088 119.917 36.663 119.901 36.6173C119.884 36.5721 119.864 36.528 119.842 36.4853C119.822 36.4438 119.799 36.4034 119.775 36.3641C119.75 36.3239 119.724 36.2852 119.694 36.2484C119.666 36.2097 119.636 36.1729 119.603 36.138C119.571 36.1036 119.537 36.0712 119.501 36.041L119.394 35.9495C119.351 35.9199 119.305 35.8929 119.26 35.866C119.235 35.8483 119.209 35.8321 119.182 35.8175C116.798 34.6376 114.517 33.2586 112.363 31.6951C112.048 31.4662 111.655 31.3722 111.272 31.4339C110.888 31.4955 110.544 31.7076 110.316 32.0236C110.089 32.3396 109.995 32.7336 110.056 33.1189C110.118 33.5042 110.329 33.8492 110.644 34.0781C111.4 34.6301 112.188 35.1551 112.987 35.6694H107.12V27.8392C107.12 27.8042 107.12 27.7692 107.12 27.7315C107.119 27.6747 107.113 27.618 107.104 27.5619C107.091 27.509 107.076 27.4569 107.058 27.4057C107.049 27.3663 107.038 27.3276 107.023 27.2899C106.999 27.2301 106.969 27.1725 106.935 27.1176C106.919 27.0907 106.908 27.0611 106.892 27.0368C106.842 26.9598 106.784 26.8877 106.72 26.8214C103.363 23.3707 100.578 19.4016 98.4715 15.0653C98.3004 14.7151 97.9978 14.4473 97.6302 14.3211C97.2625 14.1949 96.86 14.2204 96.5112 14.3922C96.1623 14.5639 95.8957 14.8678 95.77 15.2369C95.6442 15.6061 95.6697 16.0102 95.8407 16.3605C96.4414 17.5919 97.0886 18.7884 97.7823 19.9498V35.7583C97.4551 35.872 97.1788 36.0987 97.0025 36.3979C96.8263 36.6971 96.7615 37.0494 96.8198 37.392C96.878 37.7347 97.0556 38.0455 97.3207 38.269C97.5859 38.4925 97.9215 38.6142 98.2677 38.6125H117.101V42.7161H2.9311V38.6125H42.1186C42.3678 38.6879 42.6336 38.6879 42.8828 38.6125H92.7863C92.9789 38.6125 93.1697 38.5744 93.3476 38.5004C93.5256 38.4264 93.6873 38.3179 93.8235 38.1811C93.9597 38.0443 94.0678 37.882 94.1415 37.7033C94.2152 37.5246 94.2532 37.333 94.2532 37.1396V1.47288C94.2532 1.27945 94.2152 1.08793 94.1415 0.909231C94.0678 0.730533 93.9597 0.568164 93.8235 0.431395C93.6873 0.294626 93.5256 0.186135 93.3476 0.112116C93.1697 0.0380971 92.9789 0 92.7863 0L85.7576 0C85.565 0 85.3742 0.0380971 85.1963 0.112116C85.0183 0.186135 84.8566 0.294626 84.7204 0.431395C84.5841 0.568164 84.4761 0.730533 84.4024 0.909231C84.3287 1.08793 84.2907 1.27945 84.2907 1.47288V35.6694H78.9649V30.1145C78.9734 29.916 78.9417 29.7178 78.8719 29.5318C78.802 29.3459 78.6955 29.1761 78.5585 29.0326C78.4216 28.8891 78.2572 28.7749 78.0752 28.6969C77.8931 28.6189 77.6973 28.5787 77.4994 28.5787C77.3014 28.5787 77.1056 28.6189 76.9235 28.6969C76.7415 28.7749 76.5771 28.8891 76.4402 29.0326C76.3033 29.1761 76.1967 29.3459 76.1268 29.5318C76.057 29.7178 76.0254 29.916 76.0338 30.1145V35.6694H70.7053V26.5629C72.5984 25.7319 74.387 24.6789 76.0338 23.426V25.5801C76.0254 25.7786 76.057 25.9769 76.1268 26.1628C76.1967 26.3487 76.3033 26.5186 76.4402 26.662C76.5771 26.8055 76.7415 26.9197 76.9235 26.9977C77.1056 27.0757 77.3014 27.1159 77.4994 27.1159C77.6973 27.1159 77.8931 27.0757 78.0752 26.9977C78.2572 26.9197 78.4216 26.8055 78.5585 26.662C78.6955 26.5186 78.802 26.3487 78.8719 26.1628C78.9417 25.9769 78.9734 25.7786 78.9649 25.5801V20.8087C80.1537 19.5705 81.2181 18.2176 82.1427 16.7698C82.256 16.6074 82.3355 16.4238 82.3764 16.2298C82.4173 16.0359 82.4188 15.8357 82.3808 15.6411C82.3428 15.4466 82.2661 15.2617 82.1553 15.0977C82.0444 14.9336 81.9017 14.7937 81.7357 14.6864C81.5698 14.579 81.3839 14.5064 81.1893 14.4729C80.9947 14.4394 80.7954 14.4457 80.6033 14.4914C80.4111 14.5371 80.2302 14.6212 80.0712 14.7388C79.9123 14.8564 79.7786 15.005 79.6782 15.1757C77.0671 19.2463 73.2523 22.394 68.7691 24.1772C68.7209 24.1934 68.6699 24.2122 68.6216 24.2338C65.9695 25.2687 63.1536 25.8159 60.3084 25.8494C60.208 25.8277 60.1055 25.8169 60.0027 25.8171C59.9081 25.8173 59.8137 25.8272 59.7211 25.8467C56.8686 25.8178 54.0448 25.2704 51.3865 24.2311L51.2604 24.1799C50.2857 23.7934 49.3371 23.3437 48.4205 22.8336C48.2525 22.7394 48.0677 22.6793 47.8766 22.6568C47.6855 22.6343 47.4918 22.6498 47.3067 22.7024C47.1215 22.755 46.9485 22.8438 46.7975 22.9635C46.6466 23.0833 46.5205 23.2317 46.4267 23.4004C46.3328 23.5691 46.273 23.7547 46.2506 23.9466C46.2281 24.1384 46.2436 24.3329 46.296 24.5188C46.3484 24.7047 46.4368 24.8784 46.5561 25.03C46.6753 25.1816 46.8232 25.3082 46.9912 25.4024C47.7474 25.8278 48.5162 26.2111 49.2974 26.5522V35.6533H43.9796V20.5341C44.0292 20.2934 44.0179 20.044 43.9467 19.8088C43.8755 19.5736 43.7467 19.3601 43.572 19.1878C42.4975 18.1258 41.5292 16.9606 40.6812 15.7089C40.4494 15.4204 40.1179 15.2303 39.7527 15.1764C39.3875 15.1226 39.0155 15.2089 38.711 15.4182C38.4064 15.6275 38.1916 15.9445 38.1094 16.3058C38.0272 16.6671 38.0837 17.0462 38.2677 17.3675C39.0907 18.5894 40.0147 19.7397 41.0298 20.806V35.6694H35.7093V1.47288C35.7093 1.08224 35.5548 0.707613 35.2797 0.431395C35.0046 0.155178 34.6315 0 34.2424 0L27.2245 0C26.8354 0 26.4623 0.155178 26.1872 0.431395C25.9121 0.707613 25.7576 1.08224 25.7576 1.47288V35.6694H22.258V34C22.2665 33.8015 22.2348 33.6033 22.165 33.4173C22.0951 33.2314 21.9886 33.0616 21.8516 32.9181C21.7147 32.7746 21.5503 32.6604 21.3683 32.5824C21.1862 32.5044 20.9904 32.4642 20.7925 32.4642C20.5945 32.4642 20.3987 32.5044 20.2167 32.5824C20.0346 32.6604 19.8702 32.7746 19.7333 32.9181C19.5964 33.0616 19.4898 33.2314 19.4199 33.4173C19.3501 33.6033 19.3185 33.8015 19.3269 34V35.6694H15.822V28.4505C17.0616 27.1359 18.2255 25.7514 19.3081 24.3038V29.0105C19.2997 29.2091 19.3313 29.4073 19.4012 29.5932C19.471 29.7792 19.5776 29.949 19.7145 30.0925C19.8514 30.236 20.0159 30.3501 20.1979 30.4282C20.3799 30.5062 20.5758 30.5464 20.7737 30.5464C20.9716 30.5464 21.1675 30.5062 21.3495 30.4282C21.5315 30.3501 21.6959 30.236 21.8329 30.0925C21.9698 29.949 22.0764 29.7792 22.1462 29.5932C22.216 29.4073 22.2477 29.2091 22.2392 29.0105V19.9256C22.856 18.8862 23.4406 17.8163 23.993 16.7159C24.1524 16.3685 24.1709 15.9726 24.0447 15.6117C23.9184 15.2509 23.6574 14.9535 23.3167 14.7824C22.976 14.6114 22.5824 14.5801 22.2192 14.6952C21.8559 14.8103 21.5515 15.0628 21.3704 15.3992C19.3012 19.5841 16.595 23.4195 13.3494 26.7676C13.3189 26.7942 13.2902 26.823 13.2636 26.8537C9.64649 30.5216 5.43885 33.5502 0.817935 35.8121C0.791062 35.8267 0.765091 35.8429 0.740166 35.8606C0.694578 35.8875 0.648989 35.9145 0.606082 35.9441L0.498815 36.0356C0.462905 36.0658 0.428873 36.0982 0.396911 36.1326C0.363525 36.1668 0.333028 36.2037 0.305734 36.243C0.276513 36.2798 0.249643 36.3185 0.225283 36.3588C0.200899 36.398 0.178522 36.4384 0.158241 36.4799C0.135862 36.5226 0.116159 36.5667 0.0992439 36.6119C0.0831538 36.6576 0.0697454 36.7034 0.056337 36.7492C0.0429286 36.795 0.0322018 36.838 0.0241568 36.8865C0.0161117 36.935 0.0241568 36.9888 0.00806668 37.0427C-0.00802342 37.0965 0.00806668 37.1019 0.00806668 37.1315V44.1809C0.00806636 44.3742 0.0460277 44.5656 0.119778 44.7441C0.193529 44.9227 0.301621 45.0849 0.437868 45.2214C0.574116 45.358 0.735845 45.4662 0.913799 45.5399C1.09175 45.6137 1.28244 45.6514 1.47495 45.6511H25.7576V65.0381H24.5482C24.1591 65.0381 23.786 65.1933 23.5109 65.4695C23.2358 65.7457 23.0813 66.1203 23.0813 66.511C23.0813 66.9016 23.2358 67.2762 23.5109 67.5525C23.786 67.8287 24.1591 67.9838 24.5482 67.9838H34.2424C34.3009 67.9816 34.3591 67.9753 34.4168 67.965C34.4734 67.9754 34.5308 67.9817 34.5884 67.9838H43.7463C44.1354 67.9838 44.5085 67.8287 44.7836 67.5525C45.0587 67.2762 45.2132 66.9016 45.2132 66.511C45.2132 66.1203 45.0587 65.7457 44.7836 65.4695C44.5085 65.1933 44.1354 65.0381 43.7463 65.0381H35.7013V49.8785C35.7013 49.4879 35.5467 49.1133 35.2716 48.837C34.9966 48.5608 34.6234 48.4056 34.2344 48.4056C33.8454 48.4056 33.4723 48.5608 33.1972 48.837C32.9221 49.1133 32.7675 49.4879 32.7675 49.8785V65.0543H28.694V45.6672H84.2907V65.0543H60.4988C60.1098 65.0543 59.7367 65.2094 59.4616 65.4856C59.1865 65.7619 59.0319 66.1365 59.0319 66.5271C59.0319 66.9178 59.1865 67.2924 59.4616 67.5686C59.7367 67.8448 60.1098 68 60.4988 68H96.8383C97.2274 68 97.6005 67.8448 97.8756 67.5686C98.1507 67.2924 98.3052 66.9178 98.3052 66.5271C98.3052 66.1365 98.1507 65.7619 97.8756 65.4856C97.6005 65.2094 97.2274 65.0543 96.8383 65.0543H94.2424V49.752C94.2509 49.5534 94.2193 49.3552 94.1494 49.1693C94.0796 48.9833 93.973 48.8135 93.8361 48.67C93.6992 48.5265 93.5347 48.4123 93.3527 48.3343C93.1707 48.2563 92.9748 48.2161 92.7769 48.2161C92.579 48.2161 92.3831 48.2563 92.2011 48.3343C92.0191 48.4123 91.8547 48.5265 91.7177 48.67C91.5808 48.8135 91.4742 48.9833 91.4044 49.1693C91.3345 49.3552 91.3029 49.5534 91.3114 49.752V65.0543H87.2245V45.6672H118.53C118.723 45.6676 118.914 45.6298 119.092 45.5561C119.27 45.4824 119.431 45.3741 119.568 45.2376C119.704 45.101 119.812 44.9388 119.886 44.7603C119.959 44.5817 119.997 44.3903 119.997 44.197V37.1396C119.997 37.11 119.997 37.0831 119.997 37.0535C119.997 37.0238 119.984 36.9458 119.976 36.8892ZM87.2245 2.94306H91.3114V35.6694H87.2245V2.94306ZM67.7742 35.6694H61.4669V28.779C63.6069 28.6606 65.7247 28.2827 67.7742 27.6534V35.6694ZM52.2205 27.6588C54.2701 28.2871 56.3879 28.6642 58.5278 28.7817V35.6694H52.2258L52.2205 27.6588ZM28.694 2.94306H32.7809V35.6694H28.694V2.94306ZM12.8721 31.2697V35.6694H7.04212C9.09303 34.3524 11.0419 32.8816 12.8721 31.2697ZM104.181 28.4262V35.6694H100.681V24.2903C101.771 25.7351 102.942 27.116 104.189 28.4262H104.181Z" fill="#3246D3"/>
<path d="M18.2355 65.0543H12.9365C12.5474 65.0543 12.1743 65.2094 11.8992 65.4857C11.6242 65.7619 11.4696 66.1365 11.4696 66.5271C11.4696 66.9178 11.6242 67.2924 11.8992 67.5686C12.1743 67.8448 12.5474 68 12.9365 68H18.2355C18.6245 68 18.9976 67.8448 19.2727 67.5686C19.5478 67.2924 19.7024 66.9178 19.7024 66.5271C19.7024 66.1365 19.5478 65.7619 19.2727 65.4857C18.9976 65.2094 18.6245 65.0543 18.2355 65.0543Z" fill="#3246D3"/>
<path d="M112.384 66.5271C112.384 66.3338 112.347 66.1424 112.273 65.9637C112.2 65.785 112.092 65.6226 111.956 65.4858C111.82 65.349 111.659 65.2405 111.481 65.1664C111.303 65.0924 111.112 65.0543 110.92 65.0543H104.537C104.148 65.0543 103.775 65.2094 103.5 65.4857C103.225 65.7619 103.071 66.1365 103.071 66.5271C103.071 66.9178 103.225 67.2924 103.5 67.5686C103.775 67.8448 104.148 68 104.537 68H110.92C111.112 68 111.303 67.9619 111.481 67.8878C111.659 67.8138 111.82 67.7053 111.956 67.5685C112.092 67.4316 112.2 67.2693 112.273 67.0906C112.347 66.9119 112.384 66.7204 112.384 66.5271Z" fill="#3246D3"/>
<path d="M52.561 68C52.95 68 53.3231 67.8448 53.5982 67.5686C53.8733 67.2924 54.0279 66.9178 54.0279 66.5271C54.0279 66.1365 53.8733 65.7619 53.5982 65.4857C53.3231 65.2094 52.95 65.0543 52.561 65.0543H51.7565C51.3675 65.0543 50.9943 65.2094 50.7193 65.4857C50.4442 65.7619 50.2896 66.1365 50.2896 66.5271C50.2896 66.9178 50.4442 67.2924 50.7193 67.5686C50.9943 67.8448 51.3675 68 51.7565 68H52.561Z" fill="#3246D3"/>
</g>
<defs>
<clipPath id="clip0_11_3">
<rect width="120" height="68" fill="white"/>
</clipPath>
</defs>
</svg>
