<svg width="54" height="54" viewBox="0 0 54 54" fill="none" xmlns="http://www.w3.org/2000/svg">
<path d="M27 3.64502C14.1075 3.64502 3.64499 14.1075 3.64499 27C3.64499 39.8925 14.1075 50.355 26.9325 50.355C39.7575 50.355 50.2875 39.8925 50.355 27C50.2875 14.1075 39.8925 3.71252 27 3.64502ZM27 48.33C15.255 48.33 5.66999 38.745 5.66999 27C5.66999 15.255 15.255 5.67002 27 5.67002C38.745 5.67002 48.33 15.1875 48.33 26.9325C48.2625 38.745 38.745 48.2625 27 48.33Z" fill="white"/>
<path d="M27 10.0575V12.0825C35.235 12.0825 41.85 18.765 41.9175 27H43.9425C43.9425 17.685 36.315 10.125 27 10.0575Z" fill="white"/>
<path d="M28.0125 17.2125H25.9875V25.9875H17.2125V28.0125H25.9875V36.7875H28.0125V28.0125H36.7875V25.9875H28.0125V17.2125Z" fill="white"/>
</svg>
