<svg width="43" height="43" viewBox="0 0 43 43" fill="none" xmlns="http://www.w3.org/2000/svg">
<g clip-path="url(#clip0_15_10)">
<path d="M6.88 12.04L3.44 42.14H39.56L36.12 12.04H6.88Z" stroke="#6E6C88" stroke-width="2" stroke-miterlimit="10" stroke-linecap="round"/>
<path d="M29.24 16.34C29.24 15.2727 29.24 10.5272 29.24 9.45997C29.24 5.18491 25.7751 1.71997 21.5 1.71997C17.2249 1.71997 13.76 5.18491 13.76 9.45997C13.76 10.5272 13.76 15.2727 13.76 16.34" stroke="#6E6C88" stroke-width="2" stroke-miterlimit="10" stroke-linecap="round"/>
<path d="M29.24 18.06C30.1899 18.06 30.96 17.2899 30.96 16.34C30.96 15.3901 30.1899 14.62 29.24 14.62C28.2901 14.62 27.52 15.3901 27.52 16.34C27.52 17.2899 28.2901 18.06 29.24 18.06Z" fill="#6E6C88"/>
<path d="M13.76 18.06C14.7099 18.06 15.48 17.2899 15.48 16.34C15.48 15.3901 14.7099 14.62 13.76 14.62C12.8101 14.62 12.04 15.3901 12.04 16.34C12.04 17.2899 12.8101 18.06 13.76 18.06Z" fill="#6E6C88"/>
</g>
<defs>
<clipPath id="clip0_15_10">
<rect width="43" height="43" fill="white"/>
</clipPath>
</defs>
</svg>
