<svg width="63" height="63" viewBox="0 0 63 63" fill="none" xmlns="http://www.w3.org/2000/svg">
<path d="M26.25 31.5H13.125C11.6753 31.5 10.5 30.3248 10.5 28.875V19.6875C10.5 18.2378 11.6753 17.0625 13.125 17.0625H23.625C25.0747 17.0625 26.25 18.2378 26.25 19.6875V31.5ZM26.25 31.5C26.25 38.0625 23.625 42 15.75 45.9375" stroke="white" stroke-width="1.5" stroke-linecap="round"/>
<path d="M52.5 31.5H39.375C37.9252 31.5 36.75 30.3248 36.75 28.875V19.6875C36.75 18.2378 37.9252 17.0625 39.375 17.0625H49.875C51.3248 17.0625 52.5 18.2378 52.5 19.6875V31.5ZM52.5 31.5C52.5 38.0625 49.875 42 42 45.9375" stroke="white" stroke-width="1.5" stroke-linecap="round"/>
</svg>
