<svg width="40" height="40" viewBox="0 0 40 40" fill="none" xmlns="http://www.w3.org/2000/svg">
<path d="M36.9688 14.8437C36.9688 13.1094 35.5469 11.6875 33.8125 11.6875C32.0781 11.6875 30.6562 13.1094 30.6562 14.8437C30.6562 15.4219 30.8281 15.9687 31.1094 16.4375L26.8594 20.6875C26.4219 20.4687 25.9375 20.3281 25.4219 20.3281C24.7656 20.3281 24.1719 20.5312 23.6562 20.8594L19.3906 16.6094C19.7344 16.1094 19.9375 15.5 19.9375 14.8437C19.9375 13.1094 18.5156 11.6875 16.7812 11.6875C15.0469 11.6875 13.625 13.1094 13.625 14.8437C13.625 15.3594 13.7656 15.8437 13.9844 16.2656L9.46875 20.7812C9 20.5 8.45313 20.3281 7.875 20.3281C6.14062 20.3281 4.71875 21.75 4.71875 23.4844C4.71875 25.2188 6.14062 26.6406 7.875 26.6406C9.60938 26.6406 11.0312 25.2188 11.0312 23.4844C11.0312 22.9062 10.8594 22.3594 10.5781 21.8906L15.0156 17.4531C15.5156 17.7969 16.125 18 16.7812 18C17.2969 18 17.7812 17.8594 18.2031 17.6406L22.6094 22.0469C22.3906 22.4844 22.25 22.9688 22.25 23.4844C22.25 25.2188 23.6719 26.6406 25.4063 26.6406C27.1406 26.6406 28.5625 25.2188 28.5625 23.4844C28.5625 22.8281 28.3594 22.2188 28.0312 21.7188L32.2031 17.5469C32.6719 17.8281 33.2188 18 33.7969 18C35.5469 18 36.9688 16.5781 36.9688 14.8437ZM7.875 25.0625C7 25.0625 6.28125 24.3437 6.28125 23.4687C6.28125 22.5937 7 21.875 7.875 21.875C8.3125 21.875 8.70312 22.0469 9 22.3438C9.28125 22.625 9.46875 23.0312 9.46875 23.4687C9.46875 24.3594 8.75 25.0625 7.875 25.0625ZM16.7812 16.4219C15.9062 16.4219 15.1875 15.7031 15.1875 14.8281C15.1875 13.9531 15.9062 13.2344 16.7812 13.2344C17.6562 13.2344 18.375 13.9531 18.375 14.8281C18.375 15.7187 17.6562 16.4219 16.7812 16.4219ZM25.4219 25.0625C24.5469 25.0625 23.8281 24.3437 23.8281 23.4687C23.8281 22.5937 24.5469 21.875 25.4219 21.875C26.2969 21.875 27.0156 22.5937 27.0156 23.4687C27 24.3594 26.2969 25.0625 25.4219 25.0625ZM32.6875 15.9531C32.4062 15.6719 32.2188 15.2656 32.2188 14.8281C32.2188 13.9531 32.9375 13.2344 33.8125 13.2344C34.6875 13.2344 35.4063 13.9531 35.4063 14.8281C35.4063 15.7031 34.6875 16.4219 33.8125 16.4219C33.375 16.4219 32.9688 16.25 32.6875 15.9531Z" fill="#3246D3"/>
<path d="M1.48438 33.2344C1.95312 33.2344 2.32812 32.8594 2.32812 32.3906V3.45312C2.32812 2.98437 1.95312 2.60938 1.48438 2.60938C1.01562 2.60938 0.640625 2.98437 0.640625 3.45312V32.3906C0.640625 32.8594 1.01562 33.2344 1.48438 33.2344Z" fill="#3246D3"/>
<path d="M5.89062 35.7031H1.48437C1.01562 35.7031 0.640625 36.0781 0.640625 36.5469C0.640625 37.0156 1.01562 37.3906 1.48437 37.3906H5.90625C6.375 37.3906 6.75 37.0156 6.75 36.5469C6.75 36.0781 6.35938 35.7031 5.89062 35.7031Z" fill="#3246D3"/>
<path d="M14.0469 35.7031H9.64063C9.17188 35.7031 8.79688 36.0781 8.79688 36.5469C8.79688 37.0156 9.17188 37.3906 9.64063 37.3906H14.0625C14.5312 37.3906 14.9062 37.0156 14.9062 36.5469C14.9062 36.0781 14.5156 35.7031 14.0469 35.7031Z" fill="#3246D3"/>
<path d="M22.2031 35.7031H17.7813C17.3125 35.7031 16.9375 36.0781 16.9375 36.5469C16.9375 37.0156 17.3125 37.3906 17.7813 37.3906H22.2031C22.6719 37.3906 23.0469 37.0156 23.0469 36.5469C23.0469 36.0781 22.6719 35.7031 22.2031 35.7031Z" fill="#3246D3"/>
<path d="M30.3594 35.7031H25.9375C25.4687 35.7031 25.0938 36.0781 25.0938 36.5469C25.0938 37.0156 25.4687 37.3906 25.9375 37.3906H30.3594C30.8281 37.3906 31.2031 37.0156 31.2031 36.5469C31.2031 36.0781 30.8281 35.7031 30.3594 35.7031Z" fill="#3246D3"/>
<path d="M38.5156 35.7031H34.0937C33.625 35.7031 33.25 36.0781 33.25 36.5469C33.25 37.0156 33.625 37.3906 34.0937 37.3906H38.5156C38.9844 37.3906 39.3594 37.0156 39.3594 36.5469C39.3594 36.0781 38.9844 35.7031 38.5156 35.7031Z" fill="#3246D3"/>
</svg>
