<svg width="43" height="43" viewBox="0 0 43 43" fill="none" xmlns="http://www.w3.org/2000/svg">
<g clip-path="url(#clip0_22_261)">
<path d="M40.0527 7.42647L32.8861 0.259807C32.8024 0.17678 32.7031 0.111092 32.594 0.0665116C32.4848 0.0219308 32.3679 -0.00066666 32.25 1.49732e-05H14.3334V1.79168H31.3542V6.27085C31.3542 6.98362 31.6374 7.66719 32.1414 8.1712C32.6454 8.6752 33.3289 8.95835 34.0417 8.95835H38.5209V40.3125C38.5209 40.5501 38.4265 40.778 38.2585 40.946C38.0905 41.114 37.8626 41.2083 37.625 41.2083H11.6459V43H37.625C38.3378 43 39.0214 42.7169 39.5254 42.2129C40.0294 41.7089 40.3125 41.0253 40.3125 40.3125V8.06252C40.3132 7.94462 40.2906 7.82775 40.246 7.7186C40.2015 7.60945 40.1358 7.51018 40.0527 7.42647ZM34.0417 7.16668C33.8041 7.16668 33.5763 7.0723 33.4083 6.9043C33.2403 6.7363 33.1459 6.50844 33.1459 6.27085V3.05481L37.2577 7.16668H34.0417Z" fill="#81869B"/>
<path d="M11.6459 1.79167C11.6459 1.31649 11.4571 0.86077 11.1211 0.524767C10.7851 0.188764 10.3294 0 9.85419 0L4.47919 0C4.00401 0 3.54829 0.188764 3.21229 0.524767C2.87629 0.86077 2.68752 1.31649 2.68752 1.79167V35.8333C2.68644 35.9903 2.7266 36.1447 2.80398 36.2812L6.38731 42.5521C6.46545 42.6899 6.57875 42.8046 6.71567 42.8844C6.85259 42.9642 7.00822 43.0062 7.16669 43.0062C7.32516 43.0062 7.48079 42.9642 7.61771 42.8844C7.75462 42.8046 7.86793 42.6899 7.94606 42.5521L11.5294 36.2812C11.6068 36.1447 11.6469 35.9903 11.6459 35.8333V1.79167ZM4.47919 7.16667H6.27085V34.9375H4.47919V7.16667ZM7.16669 40.3125L5.12419 36.7292H9.20023L7.16669 40.3125ZM9.85419 34.9375H8.06252V7.16667H9.85419V34.9375ZM9.85419 5.375H4.47919V1.79167H9.85419V5.375Z" fill="#81869B"/>
</g>
<defs>
<clipPath id="clip0_22_261">
<rect width="43" height="43" fill="white"/>
</clipPath>
</defs>
</svg>
