<svg width="39" height="43" viewBox="0 0 39 43" fill="none" xmlns="http://www.w3.org/2000/svg">
<path d="M38.0527 7.42647L30.8861 0.259807C30.8024 0.17678 30.7031 0.111092 30.594 0.0665116C30.4848 0.0219308 30.3679 -0.00066666 30.25 1.49732e-05H12.3334V1.79168H29.3542V6.27085C29.3542 6.98362 29.6374 7.66719 30.1414 8.1712C30.6454 8.6752 31.3289 8.95835 32.0417 8.95835H36.5209V40.3125C36.5209 40.5501 36.4265 40.778 36.2585 40.946C36.0905 41.114 35.8626 41.2083 35.625 41.2083H9.64587V43H35.625C36.3378 43 37.0214 42.7169 37.5254 42.2129C38.0294 41.7089 38.3125 41.0253 38.3125 40.3125V8.06252C38.3132 7.94462 38.2906 7.82775 38.246 7.7186C38.2015 7.60945 38.1358 7.51018 38.0527 7.42647ZM32.0417 7.16668C31.8041 7.16668 31.5763 7.0723 31.4083 6.9043C31.2403 6.7363 31.1459 6.50844 31.1459 6.27085V3.05481L35.2577 7.16668H32.0417Z" fill="#3246D3"/>
<path d="M9.64585 1.79167C9.64585 1.31649 9.45709 0.86077 9.12109 0.524767C8.78508 0.188764 8.32937 0 7.85419 0L2.47919 0C2.00401 0 1.54829 0.188764 1.21229 0.524767C0.876286 0.86077 0.687521 1.31649 0.687521 1.79167V35.8333C0.686438 35.9903 0.726597 36.1447 0.80398 36.2812L4.38731 42.5521C4.46545 42.6899 4.57875 42.8046 4.71567 42.8844C4.85259 42.9642 5.00822 43.0062 5.16669 43.0062C5.32516 43.0062 5.48079 42.9642 5.61771 42.8844C5.75462 42.8046 5.86793 42.6899 5.94606 42.5521L9.5294 36.2812C9.60678 36.1447 9.64694 35.9903 9.64585 35.8333V1.79167ZM2.47919 7.16667H4.27085V34.9375H2.47919V7.16667ZM5.16669 40.3125L3.12419 36.7292H7.20023L5.16669 40.3125ZM7.85419 34.9375H6.06252V7.16667H7.85419V34.9375ZM7.85419 5.375H2.47919V1.79167H7.85419V5.375Z" fill="#3246D3"/>
</svg>
