<svg width="40" height="40" viewBox="0 0 40 40" fill="none" xmlns="http://www.w3.org/2000/svg">
<path d="M16.25 2.5C8.66875 2.5 2.5 8.66875 2.5 16.25C2.5 23.8312 8.66875 30 16.25 30C23.8312 30 30 23.8312 30 16.25C30 8.66875 23.8312 2.5 16.25 2.5ZM16.25 27.5C10.0475 27.5 5 22.4538 5 16.25C5 10.0475 10.0475 5 16.25 5C22.4538 5 27.5 10.0475 27.5 16.25C27.5 22.4538 22.4538 27.5 16.25 27.5Z" fill="#818181"/>
<path d="M37.1337 35.3663L29.6325 27.8663C29.1437 27.3775 28.3537 27.3775 27.865 27.8663C27.3762 28.355 27.3762 29.145 27.865 29.6338L35.3662 37.1338C35.61 37.3775 35.93 37.5 36.25 37.5C36.57 37.5 36.89 37.3775 37.1337 37.1338C37.6225 36.645 37.6225 35.855 37.1337 35.3663Z" fill="#818181"/>
</svg>
