<svg width="43" height="43" viewBox="0 0 43 43" fill="none" xmlns="http://www.w3.org/2000/svg">
<g clip-path="url(#clip0_13_2)">
<path d="M42.3281 21.4606C42.3494 32.9362 32.9907 42.32 21.5151 42.328C16.5588 42.3316 12.0062 40.6038 8.4285 37.7164C7.49821 36.9656 7.42867 35.5713 8.27406 34.7259L9.22031 33.7797C9.94333 33.0567 11.0976 32.9776 11.8987 33.6131C14.5345 35.7047 17.8703 36.9531 21.5 36.9531C30.0416 36.9531 36.9531 30.0403 36.9531 21.5C36.9531 12.9584 30.0403 6.04688 21.5 6.04688C17.4004 6.04688 13.6769 7.63997 10.9123 10.2404L15.1748 14.5029C16.0214 15.3495 15.4218 16.7969 14.2247 16.7969H2.01562C1.27346 16.7969 0.671875 16.1953 0.671875 15.4531V3.24406C0.671875 2.04695 2.11926 1.44739 2.96582 2.29387L7.1123 6.44034C10.8515 2.86689 15.9194 0.671875 21.5 0.671875C32.9899 0.671875 42.3069 9.97566 42.3281 21.4606ZM27.1343 28.0772L27.9593 27.0165C28.6428 26.1378 28.4845 24.8714 27.6057 24.188L24.1875 21.5293V12.7656C24.1875 11.6524 23.2851 10.75 22.1719 10.75H20.8281C19.7149 10.75 18.8125 11.6524 18.8125 12.7656V24.1582L24.3058 28.4308C25.1846 29.1142 26.4509 28.956 27.1343 28.0772Z" fill="#70758C"/>
</g>
<defs>
<clipPath id="clip0_13_2">
<rect width="43" height="43" fill="white"/>
</clipPath>
</defs>
</svg>
