<svg width="64" height="64" viewBox="0 0 64 64" fill="none" xmlns="http://www.w3.org/2000/svg">
<path d="M31.9997 57.5439C46.0853 57.5439 57.5441 46.0854 57.5441 32.0004C57.5441 17.9154 46.0853 6.45605 31.9997 6.45605C17.9147 6.45605 6.45618 17.9156 6.45618 32.0004C6.45618 46.0853 17.9147 57.5439 31.9997 57.5439ZM31.9997 10.4861C43.8629 10.4861 53.5151 20.1372 53.5151 32.0004C53.5151 43.8627 43.8629 53.5151 31.9997 53.5151C20.1372 53.5151 10.4862 43.8627 10.4862 32.0004C10.4861 20.1372 20.1371 10.4861 31.9997 10.4861Z" fill="#4A5568"/>
<path d="M21.5096 42.6886C21.9579 43.1289 22.5409 43.3473 23.1225 43.3473C23.7195 43.3473 24.315 43.1173 24.7664 42.6583L31.9995 35.2867L39.2342 42.6583C39.6854 43.1173 40.2811 43.3473 40.8775 43.3473C41.4597 43.3473 42.042 43.1291 42.4902 42.6886C43.3982 41.7979 43.4114 40.3394 42.5205 39.4322L35.2259 32.0006L42.5205 24.5679C43.4114 23.6607 43.3981 22.2029 42.4902 21.3121C41.5837 20.4217 40.126 20.4348 39.2341 21.3421L31.9994 28.7134L24.7662 21.3421C23.8744 20.4341 22.4166 20.4217 21.5094 21.3121C20.6021 22.2029 20.5882 23.6607 21.4799 24.5679L28.7737 32.0006L21.4799 39.4322C20.5885 40.3394 20.6024 41.7979 21.5096 42.6886Z" fill="#4A5568"/>
</svg>
